<svg xmlns="http://www.w3.org/2000/svg" viewBox="0 0 347.77570970081985 203" class="iconAboveSlogan">
    <g fill="white" transform="matrix(5.60747673547115,0,0,5.60747673547115,-2.7476670699344936,121.2910059979502)">
        <path d="M2.13 5.53C2.13 3.26 3.07 1.15 5.61 1.15C6.15 1.15 6.85 1.25 7.43 1.41L8.11 3.29L8.69 3.19L8.69 1.29C7.73 0.73 6.86 0.46 5.61 0.46C2.48 0.46 0.49 2.73 0.49 5.60C0.49 8.19 1.97 10.74 5.61 10.74C6.76 10.74 7.99 10.42 8.69 9.91L8.69 6.96L9.91 6.48L9.80 5.89L6.09 5.89L5.99 6.48L7.20 6.96L7.20 9.86C6.68 9.98 6.05 10.05 5.60 10.05C2.83 10.05 2.13 7.69 2.13 5.53ZM16.03 5.47L16.03 4.05C15.62 3.88 15.20 3.81 14.78 3.81C14.06 3.81 13.52 4.06 13.05 4.33L12.56 3.81L10.93 3.96L11.03 4.47L11.73 4.47L11.73 9.70L10.82 10.00L10.92 10.50L13.86 10.50L13.97 10.00L13.05 9.70L13.05 4.84C13.54 4.66 14.14 4.47 14.53 4.47C14.87 4.47 15.02 4.51 15.22 4.58L15.53 5.57ZM17.16 5.47L17.67 5.57L17.96 4.49C18.35 4.35 18.79 4.33 19.15 4.33C19.98 4.33 20.55 4.80 20.55 5.80L20.55 6.54C18.73 6.54 16.60 6.85 16.60 8.81C16.60 10.02 17.51 10.65 18.69 10.65C19.66 10.65 20.03 10.43 20.58 10.00L20.82 10.50L22.68 10.50L22.78 10.00L21.87 9.70L21.87 6.38C21.87 4.73 20.97 3.81 19.24 3.81C18.52 3.81 17.86 3.96 17.16 4.31ZM20.55 9.23C20.26 9.73 19.81 10.00 19.25 10.00C18.69 10.00 18.09 9.67 18.09 8.67C18.09 7.64 18.79 7.04 20.55 7.04ZM27.33 1.29C29.71 1.29 30.80 3.12 30.80 5.50C30.80 7.88 29.71 9.91 27.33 9.91L26.11 9.91L26.11 1.29ZM27.29 10.50C30.80 10.50 32.44 8.25 32.44 5.53C32.44 2.81 30.83 0.70 27.33 0.70L23.51 0.70L23.41 1.29L24.63 1.75L24.63 9.45L23.42 9.91L23.52 10.50ZM36.95 0.70L33.71 9.45L32.51 9.91L32.61 10.50L35.80 10.50L35.90 9.91L34.45 9.45L35.25 7.20L38.92 7.20L39.70 9.45L38.50 9.91L38.60 10.50L42.41 10.50L42.52 9.91L41.31 9.45L38.16 0.46ZM37.30 1.78L37.30 2.49L38.71 6.61L35.48 6.61ZM47.98 9.28C47.64 9.76 47.14 10.00 46.58 10.00C45.84 10.00 45.09 9.55 45.09 8.27L45.09 3.96L44.49 3.81L43.05 3.96L43.15 4.47L43.78 4.47L43.78 8.15C43.78 9.65 44.53 10.65 46.06 10.65C46.84 10.65 47.35 10.54 47.98 10.00L48.23 10.50L50.11 10.50L50.20 10.00L49.29 9.70L49.29 3.96L48.79 3.81L47.24 3.96L47.33 4.47L47.98 4.47ZM52.78 2.34L52.14 2.18L51.55 3.65L50.55 3.96L50.65 4.47L51.46 4.47L51.46 8.85C51.46 9.87 52.02 10.65 53.31 10.65C54.11 10.65 54.52 10.33 54.98 9.84L54.66 9.46C54.36 9.79 54.05 10.00 53.55 10.00C53.13 10.00 52.78 9.62 52.78 8.96L52.78 4.47L54.52 4.47L54.61 3.96L52.78 3.96ZM57.47 9.70L57.47 4.84C57.92 4.65 58.49 4.47 59.02 4.47C59.75 4.47 60.28 5.00 60.28 5.89L60.28 9.70L59.36 10.00L59.47 10.50L62.41 10.50L62.51 10.00L61.60 9.70L61.60 6.10C61.60 4.62 60.65 3.81 59.14 3.81C58.55 3.81 57.92 4.07 57.47 4.33L57.47 0.20L56.84 0.04L55.19 0.20L55.30 0.70L56.15 0.70L56.15 9.70L55.24 10.00L55.34 10.50L58.28 10.50L58.38 10.00Z"/>
    </g>
    <g transform="matrix(1.0980553521050347,0,0,1.0980553521050347,119.2689690062868,0.7423499671069749)" stroke="none" fill="white">
        <path d="M95.267 21.241a3.862 3.862 0 1 0 0-7.724 3.858 3.858 0 0 0-3.752 2.982l-19.04 3.862a6.584 6.584 0 0 0-4.693-3.498l-.3-8.391A4.413 4.413 0 0 0 65.75 0a4.414 4.414 0 0 0-4.414 4.414 4.405 4.405 0 0 0 3.396 4.283l.295 8.255a6.586 6.586 0 0 0-3.929 2.786L45.49 10.299c.073-.296.123-.602.123-.92a3.861 3.861 0 1 0-7.724 0 3.861 3.861 0 0 0 6.032 3.193l16.183 9.789c-.048.319-.08.644-.08.976 0 .963.212 1.875.583 2.699L36.021 50.564a6.556 6.556 0 0 0-4.165-1.486c-1.343 0-2.59.404-3.631 1.094L16.558 38.505a5.345 5.345 0 0 0 .985-3.088 5.379 5.379 0 1 0-5.379 5.379c.813 0 1.577-.194 2.268-.518l11.865 11.866a6.546 6.546 0 0 0-1.025 3.518c0 .497.06.979.164 1.444l-16.813 5.65a3.862 3.862 0 1 0-3.217 5.993 3.85 3.85 0 0 0 3.803-3.28l17.398-5.846a6.569 6.569 0 0 0 4.183 2.527l-.003 9.885a4.408 4.408 0 0 0 .964 8.714 4.414 4.414 0 0 0 4.414-4.413 4.405 4.405 0 0 0-2.62-4.025l.004-10.294a6.592 6.592 0 0 0 4.271-3.58l22.252 4.481c-.033.234-.072.465-.072.707a5.126 5.126 0 0 0 5.125 5.125c.374 0 .736-.045 1.087-.121l3.639 8.99c-1.05.836-1.737 2.107-1.737 3.555 0 .74.193 1.43.508 2.047l-7.385 7.743c-.033-.013-.062-.034-.097-.046a3.86 3.86 0 1 0-2.614 7.266 3.862 3.862 0 0 0 4.941-2.327 3.847 3.847 0 0 0-.189-3.035l7.281-7.637a4.5 4.5 0 0 0 2.105.538c1.195 0 2.273-.47 3.086-1.224l13.693 9.205a3.81 3.81 0 0 0-.228 1.261 3.861 3.861 0 1 0 3.86-3.862c-.668 0-1.289.186-1.838.486l-14.119-9.491a4.551 4.551 0 0 0-4.455-5.478c-.08 0-.153.019-.231.022l-3.754-9.337a5.1 5.1 0 0 0 1.571-3.682 5.126 5.126 0 0 0-5.125-5.125c-1.594 0-3.001.743-3.94 1.886l-22.749-4.652c0-.024.003-.047.003-.071 0-1.056-.254-2.05-.696-2.934l24.501-24.472a6.554 6.554 0 0 0 4.363 1.663 6.55 6.55 0 0 0 3.656-1.11l12.703 12.703a4.388 4.388 0 0 0-.391 1.797 4.414 4.414 0 1 0 4.414-4.414c-.787 0-1.516.223-2.154.584L72.183 26.826a6.548 6.548 0 0 0 1.008-3.49c0-.103-.011-.202-.016-.304L91.9 19.235c.658 1.191 1.911 2.006 3.367 2.006z"/>
    </g>
    <g fill="white" transform="matrix(0.6495623717638467,0,0,0.6495623717638467,43.75582305271777,219.3201490621909)">
        <path d="M2.13 5.53C2.13 3.26 3.07 1.15 5.61 1.15C6.15 1.15 6.85 1.25 7.43 1.41L8.11 3.29L8.69 3.19L8.69 1.29C7.73 0.73 6.86 0.46 5.61 0.46C2.48 0.46 0.49 2.73 0.49 5.60C0.49 8.19 1.97 10.74 5.61 10.74C6.76 10.74 7.99 10.42 8.69 9.91L8.69 6.96L9.91 6.48L9.80 5.89L6.09 5.89L5.99 6.48L7.20 6.96L7.20 9.86C6.68 9.98 6.05 10.05 5.60 10.05C2.83 10.05 2.13 7.69 2.13 5.53ZM16.03 5.47L16.03 4.05C15.62 3.88 15.20 3.81 14.78 3.81C14.06 3.81 13.52 4.06 13.05 4.33L12.56 3.81L10.93 3.96L11.03 4.47L11.73 4.47L11.73 9.70L10.82 10.00L10.92 10.50L13.86 10.50L13.97 10.00L13.05 9.70L13.05 4.84C13.54 4.66 14.14 4.47 14.53 4.47C14.87 4.47 15.02 4.51 15.22 4.58L15.53 5.57ZM17.16 5.47L17.67 5.57L17.96 4.49C18.35 4.35 18.79 4.33 19.15 4.33C19.98 4.33 20.55 4.80 20.55 5.80L20.55 6.54C18.73 6.54 16.60 6.85 16.60 8.81C16.60 10.02 17.51 10.65 18.69 10.65C19.66 10.65 20.03 10.43 20.58 10.00L20.82 10.50L22.68 10.50L22.78 10.00L21.87 9.70L21.87 6.38C21.87 4.73 20.97 3.81 19.24 3.81C18.52 3.81 17.86 3.96 17.16 4.31ZM20.55 9.23C20.26 9.73 19.81 10.00 19.25 10.00C18.69 10.00 18.09 9.67 18.09 8.67C18.09 7.64 18.79 7.04 20.55 7.04ZM28.18 9.39C27.79 9.79 27.34 10.00 26.77 10.00C25.59 10.00 24.88 8.82 24.88 7.14C24.88 5.46 25.48 4.47 26.84 4.47C27.33 4.47 27.80 4.65 28.18 4.86ZM28.21 10.00L28.43 10.50L30.31 10.50L30.41 10.00L29.50 9.70L29.50 0.20L28.87 0.04L27.24 0.20L27.34 0.70L28.18 0.70L28.18 4.14C27.72 3.93 27.23 3.81 26.75 3.81C24.70 3.81 23.41 5.21 23.41 7.28C23.41 9.37 24.47 10.65 26.68 10.65C27.37 10.65 27.94 10.25 28.21 10.00ZM35.13 0.70L31.89 9.45L30.69 9.91L30.79 10.50L33.98 10.50L34.08 9.91L32.63 9.45L33.43 7.20L37.10 7.20L37.88 9.45L36.68 9.91L36.78 10.50L40.59 10.50L40.70 9.91L39.49 9.45L36.34 0.46ZM35.48 1.78L35.48 2.49L36.89 6.61L33.66 6.61ZM46.16 9.28C45.82 9.76 45.32 10.00 44.76 10.00C44.02 10.00 43.27 9.55 43.27 8.27L43.27 3.96L42.67 3.81L41.23 3.96L41.33 4.47L41.96 4.47L41.96 8.15C41.96 9.65 42.71 10.65 44.24 10.65C45.02 10.65 45.53 10.54 46.16 10.00L46.41 10.50L48.29 10.50L48.38 10.00L47.47 9.70L47.47 3.96L46.97 3.81L45.42 3.96L45.51 4.47L46.16 4.47ZM50.96 2.34L50.32 2.18L49.73 3.65L48.73 3.96L48.83 4.47L49.64 4.47L49.64 8.85C49.64 9.87 50.20 10.65 51.49 10.65C52.29 10.65 52.70 10.33 53.16 9.84L52.84 9.46C52.54 9.79 52.23 10.00 51.73 10.00C51.31 10.00 50.96 9.62 50.96 8.96L50.96 4.47L52.70 4.47L52.79 3.96L50.96 3.96ZM55.65 9.70L55.65 4.84C56.10 4.65 56.67 4.47 57.20 4.47C57.93 4.47 58.46 5.00 58.46 5.89L58.46 9.70L57.54 10.00L57.65 10.50L60.59 10.50L60.69 10.00L59.78 9.70L59.78 6.10C59.78 4.62 58.83 3.81 57.32 3.81C56.73 3.81 56.10 4.07 55.65 4.33L55.65 0.20L55.02 0.04L53.37 0.20L53.48 0.70L54.33 0.70L54.33 9.70L53.42 10.00L53.52 10.50L56.46 10.50L56.56 10.00ZM67.80 1.29L69.09 1.29C70.60 1.29 71.19 2.14 71.19 3.39C71.19 4.40 70.38 5.49 69.06 5.49L68.40 5.49L68.40 6.08L70.76 9.91L70.64 10.50L73.30 10.50L73.40 9.91L72.20 9.45L70.38 6.47L69.65 6.10C71.20 6.10 72.62 5.08 72.62 3.39C72.62 1.72 71.65 0.70 69.62 0.70L65.21 0.70L65.10 1.29L66.32 1.75L66.32 9.45L65.13 9.91L65.23 10.50L68.91 10.50L69.01 9.91L67.80 9.45ZM75.50 6.54C75.61 5.24 76.17 4.33 77.38 4.33C78.34 4.33 78.88 4.87 78.88 5.89C78.88 6.09 78.83 6.36 78.78 6.54ZM77.71 10.00C76.20 10.00 75.47 8.79 75.47 7.11L75.47 7.04L79.95 7.04C80.07 6.80 80.19 6.38 80.19 6.01C80.19 4.66 79.00 3.81 77.38 3.81C75.42 3.81 73.99 5.07 73.99 7.22C73.99 9.30 75.15 10.65 77.63 10.65C78.54 10.65 79.44 10.37 80.04 9.83L79.72 9.37C79.14 9.73 78.46 10.00 77.71 10.00ZM83.48 9.70L83.48 3.96L82.84 3.81L81.35 3.96L81.45 4.47L82.17 4.47L82.17 9.70L81.24 10.00L81.35 10.50L84.28 10.50L84.39 10.00ZM82.78 0.74C82.38 0.74 82.03 1.08 82.03 1.50C82.03 1.92 82.38 2.25 82.78 2.25C83.20 2.25 83.55 1.92 83.55 1.50C83.55 1.08 83.20 0.74 82.78 0.74ZM87.67 9.70L87.67 4.84C88.12 4.63 88.62 4.47 89.17 4.47C89.91 4.47 90.55 5.00 90.55 5.89L90.55 9.70L89.64 10.00L89.75 10.50L92.68 10.50L92.78 10.00L91.87 9.70L91.87 6.10C91.87 4.62 91.01 3.81 89.49 3.81C88.76 3.81 88.26 4.05 87.67 4.33L87.16 3.81L85.55 3.96L85.65 4.47L86.35 4.47L86.35 9.70L85.44 10.00L85.54 10.50L88.48 10.50L88.59 10.00ZM97.29 0.04C95.58 0.04 94.60 1.33 94.60 2.91L94.60 3.63L93.55 3.96L93.65 4.47L94.60 4.47L94.60 9.70L93.70 10.00L93.80 10.50L96.73 10.50L96.84 10.00L95.91 9.70L95.91 4.47L97.51 4.47L97.61 3.96L95.91 3.96L95.91 2.63C95.91 1.12 96.53 0.56 97.34 0.56C97.64 0.56 97.97 0.64 98.17 0.78L98.46 1.89L98.97 1.78L98.97 0.63C98.43 0.27 98.00 0.04 97.29 0.04ZM101.91 3.81C99.83 3.81 98.62 5.12 98.62 7.22C98.62 9.32 99.69 10.65 101.91 10.65C104.13 10.65 105.20 9.38 105.20 7.22C105.20 5.07 103.98 3.81 101.91 3.81ZM101.91 4.33C103.08 4.33 103.85 5.39 103.85 7.18C103.85 8.96 103.10 10.14 101.91 10.14C100.72 10.14 99.97 8.95 99.97 7.18C99.97 5.42 100.74 4.33 101.91 4.33ZM111.52 5.47L111.52 4.05C111.12 3.88 110.70 3.81 110.28 3.81C109.55 3.81 109.02 4.06 108.54 4.33L108.05 3.81L106.43 3.96L106.53 4.47L107.23 4.47L107.23 9.70L106.32 10.00L106.41 10.50L109.35 10.50L109.47 10.00L108.54 9.70L108.54 4.84C109.03 4.66 109.63 4.47 110.03 4.47C110.36 4.47 110.52 4.51 110.71 4.58L111.02 5.57ZM115.86 4.33C116.23 4.33 116.72 4.41 117.10 4.56L117.36 5.57L117.87 5.47L117.87 4.31C117.17 3.96 116.51 3.81 115.82 3.81C113.64 3.81 112.22 5.07 112.22 7.24C112.22 9.31 113.32 10.65 115.79 10.65C116.70 10.65 117.45 10.37 118.05 9.83L117.73 9.37C117.15 9.73 116.61 10.00 115.88 10.00C114.13 10.00 113.69 8.64 113.69 6.96C113.69 5.31 114.46 4.33 115.86 4.33ZM120.43 6.54C120.54 5.24 121.10 4.33 122.30 4.33C123.27 4.33 123.80 4.87 123.80 5.89C123.80 6.09 123.76 6.36 123.70 6.54ZM122.64 10.00C121.13 10.00 120.40 8.79 120.40 7.11L120.40 7.04L124.88 7.04C124.99 6.80 125.12 6.38 125.12 6.01C125.12 4.66 123.93 3.81 122.30 3.81C120.34 3.81 118.92 5.07 118.92 7.22C118.92 9.30 120.08 10.65 122.56 10.65C123.47 10.65 124.36 10.37 124.96 9.83L124.64 9.37C124.07 9.73 123.38 10.00 122.64 10.00ZM128.31 10.65C129.93 10.65 130.86 9.88 130.86 8.69C130.86 7.46 129.79 6.99 128.80 6.57C128.14 6.29 127.30 5.94 127.30 5.31C127.30 4.73 127.81 4.33 128.56 4.33C129.01 4.33 129.49 4.41 129.79 4.56L130.07 5.57L130.58 5.47L130.58 4.31C129.98 4.00 129.33 3.81 128.72 3.81C127.19 3.81 126.20 4.54 126.20 5.67C126.20 6.78 127.04 7.25 127.97 7.69C128.76 8.04 129.74 8.37 129.74 9.06C129.74 9.73 129.09 10.14 128.20 10.14C127.90 10.14 127.46 10.02 127.15 9.91L126.69 8.55L126.17 8.65L126.17 10.14C126.88 10.49 127.71 10.65 128.31 10.65ZM139.57 0.70L136.33 9.45L135.13 9.91L135.23 10.50L138.42 10.50L138.52 9.91L137.07 9.45L137.87 7.20L141.54 7.20L142.32 9.45L141.12 9.91L141.22 10.50L145.03 10.50L145.14 9.91L143.93 9.45L140.78 0.46ZM139.92 1.78L139.92 2.49L141.33 6.61L138.10 6.61ZM147.97 9.70L147.97 4.84C148.41 4.63 148.92 4.47 149.46 4.47C150.21 4.47 150.85 5.00 150.85 5.89L150.85 9.70L149.94 10.00L150.05 10.50L152.98 10.50L153.08 10.00L152.17 9.70L152.17 6.10C152.17 4.62 151.31 3.81 149.79 3.81C149.06 3.81 148.55 4.05 147.97 4.33L147.46 3.81L145.85 3.96L145.95 4.47L146.65 4.47L146.65 9.70L145.74 10.00L145.84 10.50L148.78 10.50L148.89 10.00ZM157.42 3.81C155.34 3.81 154.13 5.12 154.13 7.22C154.13 9.32 155.20 10.65 157.42 10.65C159.64 10.65 160.71 9.38 160.71 7.22C160.71 5.07 159.49 3.81 157.42 3.81ZM157.42 4.33C158.59 4.33 159.36 5.39 159.36 7.18C159.36 8.96 158.61 10.14 157.42 10.14C156.23 10.14 155.48 8.95 155.48 7.18C155.48 5.42 156.25 4.33 157.42 4.33ZM163.98 9.70L163.98 4.84C164.43 4.63 164.93 4.47 165.48 4.47C166.22 4.47 166.87 5.00 166.87 5.89L166.87 9.70L165.96 10.00L166.07 10.50L168.99 10.50L169.09 10.00L168.18 9.70L168.18 6.10C168.18 4.62 167.33 3.81 165.80 3.81C165.07 3.81 164.57 4.05 163.98 4.33L163.48 3.81L161.87 3.96L161.97 4.47L162.67 4.47L162.67 9.70L161.76 10.00L161.85 10.50L164.79 10.50L164.91 10.00ZM175.84 4.75L176.75 4.47L176.65 3.96L174.24 3.96L174.15 4.47L175.20 4.76L173.47 9.70L173.47 9.38L171.49 4.76L172.68 4.47L172.58 3.96L169.25 3.96L169.13 4.47L170.07 4.76L172.51 10.50L173.12 10.65L172.80 11.51C172.21 13.05 171.07 13.22 170.31 13.34L170.42 13.86L172.09 14C172.54 13.69 173.08 12.61 173.31 11.98ZM183.72 6.10C183.72 5.61 183.62 5.19 183.46 4.84C183.85 4.65 184.21 4.47 184.95 4.47C185.74 4.47 186.44 4.97 186.44 5.99L186.44 9.70L185.53 10.00L185.64 10.50L188.57 10.50L188.68 10.00L187.75 9.70L187.75 6.10C187.75 4.62 186.82 3.81 185.07 3.81C184.39 3.81 183.65 4.12 183.18 4.44C182.78 4.02 182.20 3.81 181.43 3.81C180.80 3.81 180.17 4.05 179.68 4.33L179.13 3.81L177.56 3.96L177.66 4.47L178.36 4.47L178.36 9.70L177.45 10.00L177.55 10.50L180.49 10.50L180.59 10.00L179.68 9.70L179.68 4.84C180.17 4.61 180.61 4.47 181.10 4.47C181.83 4.47 182.41 5.00 182.41 5.89L182.41 9.70L181.50 10.00L181.59 10.50L184.53 10.50L184.65 10.00L183.72 9.70ZM191.97 9.70L191.97 3.96L191.32 3.81L189.84 3.96L189.94 4.47L190.65 4.47L190.65 9.70L189.73 10.00L189.84 10.50L192.77 10.50L192.88 10.00ZM191.27 0.74C190.86 0.74 190.51 1.08 190.51 1.50C190.51 1.92 190.86 2.25 191.27 2.25C191.69 2.25 192.04 1.92 192.04 1.50C192.04 1.08 191.69 0.74 191.27 0.74ZM195.80 2.34L195.16 2.18L194.57 3.65L193.58 3.96L193.68 4.47L194.49 4.47L194.49 8.85C194.49 9.87 195.05 10.65 196.34 10.65C197.13 10.65 197.54 10.33 198.00 9.84L197.68 9.46C197.39 9.79 197.08 10.00 196.57 10.00C196.15 10.00 195.80 9.62 195.80 8.96L195.80 4.47L197.54 4.47L197.64 3.96L195.80 3.96ZM204.96 4.75L205.87 4.47L205.77 3.96L203.36 3.96L203.27 4.47L204.32 4.76L202.59 9.70L202.59 9.38L200.61 4.76L201.80 4.47L201.70 3.96L198.37 3.96L198.25 4.47L199.19 4.76L201.63 10.50L202.24 10.65L201.92 11.51C201.33 13.05 200.19 13.22 199.43 13.34L199.54 13.86L201.21 14C201.66 13.69 202.20 12.61 202.43 11.98ZM212.38 9.70L212.38 3.96L211.74 3.81L210.25 3.96L210.35 4.47L211.06 4.47L211.06 9.70L210.14 10.00L210.25 10.50L213.18 10.50L213.29 10.00ZM211.68 0.74C211.27 0.74 210.92 1.08 210.92 1.50C210.92 1.92 211.27 2.25 211.68 2.25C212.10 2.25 212.45 1.92 212.45 1.50C212.45 1.08 212.10 0.74 211.68 0.74ZM216.57 9.70L216.57 4.84C217.01 4.63 217.52 4.47 218.06 4.47C218.81 4.47 219.45 5.00 219.45 5.89L219.45 9.70L218.54 10.00L218.65 10.50L221.58 10.50L221.68 10.00L220.77 9.70L220.77 6.10C220.77 4.62 219.91 3.81 218.39 3.81C217.66 3.81 217.15 4.05 216.57 4.33L216.06 3.81L214.45 3.96L214.55 4.47L215.25 4.47L215.25 9.70L214.34 10.00L214.44 10.50L217.38 10.50L217.49 10.00ZM230.08 1.29C232.46 1.29 233.55 3.12 233.55 5.50C233.55 7.88 232.46 9.91 230.08 9.91L228.86 9.91L228.86 1.29ZM230.03 10.50C233.55 10.50 235.19 8.25 235.19 5.53C235.19 2.81 233.58 0.70 230.08 0.70L226.25 0.70L226.16 1.29L227.37 1.75L227.37 9.45L226.17 9.91L226.27 10.50ZM237.68 6.54C237.79 5.24 238.35 4.33 239.55 4.33C240.52 4.33 241.05 4.87 241.05 5.89C241.05 6.09 241.01 6.36 240.95 6.54ZM239.89 10.00C238.38 10.00 237.65 8.79 237.65 7.11L237.65 7.04L242.13 7.04C242.24 6.80 242.37 6.38 242.37 6.01C242.37 4.66 241.18 3.81 239.55 3.81C237.59 3.81 236.17 5.07 236.17 7.22C236.17 9.30 237.33 10.65 239.81 10.65C240.72 10.65 241.61 10.37 242.21 9.83L241.89 9.37C241.32 9.73 240.63 10.00 239.89 10.00ZM247.06 4.33C247.42 4.33 247.91 4.41 248.29 4.56L248.56 5.57L249.06 5.47L249.06 4.31C248.36 3.96 247.70 3.81 247.02 3.81C244.83 3.81 243.42 5.07 243.42 7.24C243.42 9.31 244.51 10.65 246.99 10.65C247.90 10.65 248.64 10.37 249.24 9.83L248.92 9.37C248.35 9.73 247.80 10.00 247.07 10.00C245.32 10.00 244.89 8.64 244.89 6.96C244.89 5.31 245.66 4.33 247.06 4.33ZM251.62 6.54C251.73 5.24 252.29 4.33 253.50 4.33C254.46 4.33 255.00 4.87 255.00 5.89C255.00 6.09 254.95 6.36 254.90 6.54ZM253.83 10.00C252.32 10.00 251.59 8.79 251.59 7.11L251.59 7.04L256.07 7.04C256.19 6.80 256.31 6.38 256.31 6.01C256.31 4.66 255.12 3.81 253.50 3.81C251.54 3.81 250.11 5.07 250.11 7.22C250.11 9.30 251.27 10.65 253.75 10.65C254.66 10.65 255.56 10.37 256.16 9.83L255.84 9.37C255.26 9.73 254.58 10.00 253.83 10.00ZM259.52 9.70L259.52 4.84C259.97 4.63 260.47 4.47 261.02 4.47C261.76 4.47 262.40 5.00 262.40 5.89L262.40 9.70L261.49 10.00L261.60 10.50L264.53 10.50L264.63 10.00L263.72 9.70L263.72 6.10C263.72 4.62 262.86 3.81 261.34 3.81C260.61 3.81 260.11 4.05 259.52 4.33L259.01 3.81L257.40 3.96L257.50 4.47L258.20 4.47L258.20 9.70L257.29 10.00L257.39 10.50L260.33 10.50L260.44 10.00ZM267.48 2.34L266.84 2.18L266.25 3.65L265.26 3.96L265.36 4.47L266.17 4.47L266.17 8.85C266.17 9.87 266.73 10.65 268.02 10.65C268.81 10.65 269.22 10.33 269.68 9.84L269.36 9.46C269.07 9.79 268.76 10.00 268.25 10.00C267.83 10.00 267.48 9.62 267.48 8.96L267.48 4.47L269.22 4.47L269.32 3.96L267.48 3.96ZM275.45 5.47L275.45 4.05C275.04 3.88 274.62 3.81 274.20 3.81C273.48 3.81 272.94 4.06 272.47 4.33L271.98 3.81L270.35 3.96L270.45 4.47L271.15 4.47L271.15 9.70L270.24 10.00L270.34 10.50L273.28 10.50L273.39 10.00L272.47 9.70L272.47 4.84C272.96 4.66 273.56 4.47 273.95 4.47C274.29 4.47 274.44 4.51 274.64 4.58L274.95 5.57ZM276.58 5.47L277.09 5.57L277.38 4.49C277.77 4.35 278.21 4.33 278.57 4.33C279.40 4.33 279.97 4.80 279.97 5.80L279.97 6.54C278.15 6.54 276.02 6.85 276.02 8.81C276.02 10.02 276.93 10.65 278.11 10.65C279.08 10.65 279.45 10.43 280.00 10.00L280.24 10.50L282.10 10.50L282.20 10.00L281.29 9.70L281.29 6.38C281.29 4.73 280.39 3.81 278.66 3.81C277.94 3.81 277.28 3.96 276.58 4.31ZM279.97 9.23C279.68 9.73 279.23 10.00 278.67 10.00C278.11 10.00 277.51 9.67 277.51 8.67C277.51 7.64 278.21 7.04 279.97 7.04ZM285.12 9.70L285.12 0.20L284.49 0.04L283.01 0.20L283.11 0.70L283.81 0.70L283.81 9.70L282.90 10.00L283.00 10.50L285.94 10.50L286.03 10.00ZM289.39 9.70L289.39 3.96L288.75 3.81L287.27 3.96L287.36 4.47L288.08 4.47L288.08 9.70L287.15 10.00L287.27 10.50L290.19 10.50L290.30 10.00ZM288.69 0.74C288.29 0.74 287.94 1.08 287.94 1.50C287.94 1.92 288.29 2.25 288.69 2.25C289.11 2.25 289.46 1.92 289.46 1.50C289.46 1.08 289.11 0.74 288.69 0.74ZM291.68 3.96L291.68 5.47L292.18 5.57L292.53 4.47L295.97 4.47L295.23 4.84L291.21 10.00L291.47 10.50L296.79 10.50L296.79 8.65L296.27 8.55L295.82 10.00L292.18 10.00L293.10 9.56L297.14 4.47L296.67 3.96ZM299.56 6.54C299.67 5.24 300.23 4.33 301.43 4.33C302.40 4.33 302.93 4.87 302.93 5.89C302.93 6.09 302.89 6.36 302.83 6.54ZM301.77 10.00C300.26 10.00 299.53 8.79 299.53 7.11L299.53 7.04L304.01 7.04C304.12 6.80 304.25 6.38 304.25 6.01C304.25 4.66 303.06 3.81 301.43 3.81C299.47 3.81 298.05 5.07 298.05 7.22C298.05 9.30 299.21 10.65 301.69 10.65C302.60 10.65 303.49 10.37 304.09 9.83L303.77 9.37C303.20 9.73 302.51 10.00 301.77 10.00ZM310.00 9.39C309.61 9.79 309.16 10.00 308.59 10.00C307.41 10.00 306.70 8.82 306.70 7.14C306.70 5.46 307.30 4.47 308.66 4.47C309.15 4.47 309.62 4.65 310.00 4.86ZM310.03 10.00L310.25 10.50L312.13 10.50L312.23 10.00L311.32 9.70L311.32 0.20L310.69 0.04L309.06 0.20L309.16 0.70L310.00 0.70L310.00 4.14C309.54 3.93 309.05 3.81 308.57 3.81C306.52 3.81 305.23 5.21 305.23 7.28C305.23 9.37 306.29 10.65 308.50 10.65C309.19 10.65 309.76 10.25 310.03 10.00ZM320.45 0.70L317.21 9.45L316.01 9.91L316.11 10.50L319.30 10.50L319.40 9.91L317.95 9.45L318.75 7.20L322.42 7.20L323.20 9.45L322.00 9.91L322.10 10.50L325.91 10.50L326.02 9.91L324.81 9.45L321.66 0.46ZM320.80 1.78L320.80 2.49L322.21 6.61L318.98 6.61ZM331.48 9.28C331.14 9.76 330.64 10.00 330.08 10.00C329.34 10.00 328.59 9.55 328.59 8.27L328.59 3.96L327.99 3.81L326.55 3.96L326.65 4.47L327.28 4.47L327.28 8.15C327.28 9.65 328.03 10.65 329.56 10.65C330.34 10.65 330.85 10.54 331.48 10.00L331.73 10.50L333.61 10.50L333.70 10.00L332.79 9.70L332.79 3.96L332.29 3.81L330.74 3.96L330.83 4.47L331.48 4.47ZM336.28 2.34L335.64 2.18L335.05 3.65L334.05 3.96L334.15 4.47L334.96 4.47L334.96 8.85C334.96 9.87 335.52 10.65 336.81 10.65C337.61 10.65 338.02 10.33 338.48 9.84L338.16 9.46C337.86 9.79 337.55 10.00 337.05 10.00C336.63 10.00 336.28 9.62 336.28 8.96L336.28 4.47L338.02 4.47L338.11 3.96L336.28 3.96ZM340.97 9.70L340.97 4.84C341.42 4.65 341.99 4.47 342.52 4.47C343.25 4.47 343.78 5.00 343.78 5.89L343.78 9.70L342.86 10.00L342.97 10.50L345.91 10.50L346.01 10.00L345.10 9.70L345.10 6.10C345.10 4.62 344.15 3.81 342.64 3.81C342.05 3.81 341.42 4.07 340.97 4.33L340.97 0.20L340.34 0.04L338.69 0.20L338.80 0.70L339.65 0.70L339.65 9.70L338.74 10.00L338.84 10.50L341.78 10.50L341.88 10.00ZM350.28 3.81C348.21 3.81 346.99 5.12 346.99 7.22C346.99 9.32 348.07 10.65 350.28 10.65C352.51 10.65 353.57 9.38 353.57 7.22C353.57 5.07 352.35 3.81 350.28 3.81ZM350.28 4.33C351.46 4.33 352.23 5.39 352.23 7.18C352.23 8.96 351.47 10.14 350.28 10.14C349.09 10.14 348.35 8.95 348.35 7.18C348.35 5.42 349.12 4.33 350.28 4.33ZM359.90 5.47L359.90 4.05C359.49 3.88 359.07 3.81 358.65 3.81C357.92 3.81 357.39 4.06 356.92 4.33L356.43 3.81L354.80 3.96L354.90 4.47L355.60 4.47L355.60 9.70L354.69 10.00L354.79 10.50L357.73 10.50L357.84 10.00L356.92 9.70L356.92 4.84C357.41 4.66 358.01 4.47 358.40 4.47C358.74 4.47 358.89 4.51 359.09 4.58L359.39 5.57ZM362.84 9.70L362.84 3.96L362.19 3.81L360.71 3.96L360.81 4.47L361.52 4.47L361.52 9.70L360.60 10.00L360.71 10.50L363.64 10.50L363.75 10.00ZM362.14 0.74C361.73 0.74 361.38 1.08 361.38 1.50C361.38 1.92 361.73 2.25 362.14 2.25C362.56 2.25 362.91 1.92 362.91 1.50C362.91 1.08 362.56 0.74 362.14 0.74ZM365.12 3.96L365.12 5.47L365.62 5.57L365.97 4.47L369.42 4.47L368.68 4.84L364.66 10.00L364.91 10.50L370.23 10.50L370.23 8.65L369.71 8.55L369.26 10.00L365.62 10.00L366.55 9.56L370.58 4.47L370.12 3.96ZM371.92 5.47L372.43 5.57L372.72 4.49C373.11 4.35 373.55 4.33 373.91 4.33C374.74 4.33 375.31 4.80 375.31 5.80L375.31 6.54C373.49 6.54 371.36 6.85 371.36 8.81C371.36 10.02 372.27 10.65 373.45 10.65C374.42 10.65 374.79 10.43 375.34 10.00L375.58 10.50L377.44 10.50L377.54 10.00L376.63 9.70L376.63 6.38C376.63 4.73 375.73 3.81 374.00 3.81C373.28 3.81 372.62 3.96 371.92 4.31ZM375.31 9.23C375.02 9.73 374.57 10.00 374.01 10.00C373.45 10.00 372.85 9.67 372.85 8.67C372.85 7.64 373.55 7.04 375.31 7.04ZM380.04 2.34L379.40 2.18L378.81 3.65L377.82 3.96L377.92 4.47L378.73 4.47L378.73 8.85C378.73 9.87 379.29 10.65 380.58 10.65C381.37 10.65 381.78 10.33 382.24 9.84L381.92 9.46C381.63 9.79 381.32 10.00 380.81 10.00C380.39 10.00 380.04 9.62 380.04 8.96L380.04 4.47L381.78 4.47L381.88 3.96L380.04 3.96ZM385.04 9.70L385.04 3.96L384.40 3.81L382.91 3.96L383.01 4.47L383.73 4.47L383.73 9.70L382.80 10.00L382.91 10.50L385.84 10.50L385.95 10.00ZM384.34 0.74C383.94 0.74 383.59 1.08 383.59 1.50C383.59 1.92 383.94 2.25 384.34 2.25C384.76 2.25 385.11 1.92 385.11 1.50C385.11 1.08 384.76 0.74 384.34 0.74ZM390.36 3.81C388.29 3.81 387.07 5.12 387.07 7.22C387.07 9.32 388.15 10.65 390.36 10.65C392.59 10.65 393.65 9.38 393.65 7.22C393.65 5.07 392.43 3.81 390.36 3.81ZM390.36 4.33C391.54 4.33 392.31 5.39 392.31 7.18C392.31 8.96 391.55 10.14 390.36 10.14C389.17 10.14 388.43 8.95 388.43 7.18C388.43 5.42 389.20 4.33 390.36 4.33ZM396.93 9.70L396.93 4.84C397.38 4.63 397.88 4.47 398.43 4.47C399.17 4.47 399.81 5.00 399.81 5.89L399.81 9.70L398.90 10.00L399.01 10.50L401.94 10.50L402.04 10.00L401.13 9.70L401.13 6.10C401.13 4.62 400.27 3.81 398.75 3.81C398.02 3.81 397.52 4.05 396.93 4.33L396.42 3.81L394.81 3.96L394.91 4.47L395.61 4.47L395.61 9.70L394.70 10.00L394.80 10.50L397.74 10.50L397.85 10.00Z"/>
    </g>
</svg>
