<svg xmlns="http://www.w3.org/2000/svg" viewBox="0 0 300 300" class="font">
    <rect fill="transparent" x="0" y="0" width="300px" height="300px" class="logo-background-square"/>
    <defs>
        <linearGradient gradientTransform="rotate(25)" id="gradient" x1="0%" y1="0%" x2="100%" y2="0%">
            <stop offset="0%" stop-color="#E90DCA" stop-opacity="1"/>
            <stop offset="100%" stop-color="#1536F1" stop-opacity="1"/>
        </linearGradient>
    </defs>
    <g fill="url(#gradient)" transform="matrix(3.547242798713336,0,0,3.547242798713336,38.261853531987086,130.88036164318353)">
        <path d="M2.13 5.53C2.13 3.26 3.07 1.15 5.61 1.15C6.15 1.15 6.85 1.25 7.43 1.41L8.11 3.29L8.69 3.19L8.69 1.29C7.73 0.73 6.86 0.46 5.61 0.46C2.48 0.46 0.49 2.73 0.49 5.60C0.49 8.19 1.97 10.74 5.61 10.74C6.76 10.74 7.99 10.42 8.69 9.91L8.69 6.96L9.91 6.48L9.80 5.89L6.09 5.89L5.99 6.48L7.20 6.96L7.20 9.86C6.68 9.98 6.05 10.05 5.60 10.05C2.83 10.05 2.13 7.69 2.13 5.53ZM16.03 5.47L16.03 4.05C15.62 3.88 15.20 3.81 14.78 3.81C14.06 3.81 13.52 4.06 13.05 4.33L12.56 3.81L10.93 3.96L11.03 4.47L11.73 4.47L11.73 9.70L10.82 10.00L10.92 10.50L13.86 10.50L13.97 10.00L13.05 9.70L13.05 4.84C13.54 4.66 14.14 4.47 14.53 4.47C14.87 4.47 15.02 4.51 15.22 4.58L15.53 5.57ZM17.16 5.47L17.67 5.57L17.96 4.49C18.35 4.35 18.79 4.33 19.15 4.33C19.98 4.33 20.55 4.80 20.55 5.80L20.55 6.54C18.73 6.54 16.60 6.85 16.60 8.81C16.60 10.02 17.51 10.65 18.69 10.65C19.66 10.65 20.03 10.43 20.58 10.00L20.82 10.50L22.68 10.50L22.78 10.00L21.87 9.70L21.87 6.38C21.87 4.73 20.97 3.81 19.24 3.81C18.52 3.81 17.86 3.96 17.16 4.31ZM20.55 9.23C20.26 9.73 19.81 10.00 19.25 10.00C18.69 10.00 18.09 9.67 18.09 8.67C18.09 7.64 18.79 7.04 20.55 7.04ZM27.33 1.29C29.71 1.29 30.80 3.12 30.80 5.50C30.80 7.88 29.71 9.91 27.33 9.91L26.11 9.91L26.11 1.29ZM27.29 10.50C30.80 10.50 32.44 8.25 32.44 5.53C32.44 2.81 30.83 0.70 27.33 0.70L23.51 0.70L23.41 1.29L24.63 1.75L24.63 9.45L23.42 9.91L23.52 10.50ZM36.95 0.70L33.71 9.45L32.51 9.91L32.61 10.50L35.80 10.50L35.90 9.91L34.45 9.45L35.25 7.20L38.92 7.20L39.70 9.45L38.50 9.91L38.60 10.50L42.41 10.50L42.52 9.91L41.31 9.45L38.16 0.46ZM37.30 1.78L37.30 2.49L38.71 6.61L35.48 6.61ZM47.98 9.28C47.64 9.76 47.14 10.00 46.58 10.00C45.84 10.00 45.09 9.55 45.09 8.27L45.09 3.96L44.49 3.81L43.05 3.96L43.15 4.47L43.78 4.47L43.78 8.15C43.78 9.65 44.53 10.65 46.06 10.65C46.84 10.65 47.35 10.54 47.98 10.00L48.23 10.50L50.11 10.50L50.20 10.00L49.29 9.70L49.29 3.96L48.79 3.81L47.24 3.96L47.33 4.47L47.98 4.47ZM52.78 2.34L52.14 2.18L51.55 3.65L50.55 3.96L50.65 4.47L51.46 4.47L51.46 8.85C51.46 9.87 52.02 10.65 53.31 10.65C54.11 10.65 54.52 10.33 54.98 9.84L54.66 9.46C54.36 9.79 54.05 10.00 53.55 10.00C53.13 10.00 52.78 9.62 52.78 8.96L52.78 4.47L54.52 4.47L54.61 3.96L52.78 3.96ZM57.47 9.70L57.47 4.84C57.92 4.65 58.49 4.47 59.02 4.47C59.75 4.47 60.28 5.00 60.28 5.89L60.28 9.70L59.36 10.00L59.47 10.50L62.41 10.50L62.51 10.00L61.60 9.70L61.60 6.10C61.60 4.62 60.65 3.81 59.14 3.81C58.55 3.81 57.92 4.07 57.47 4.33L57.47 0.20L56.84 0.04L55.19 0.20L55.30 0.70L56.15 0.70L56.15 9.70L55.24 10.00L55.34 10.50L58.28 10.50L58.38 10.00Z"/>
    </g>
</svg>
